<?xml version="1.0" encoding="UTF-8" standalone="no"?>
<svg
   fill="#000000"
   height="793.11353"
   width="793.09106"
   version="1.1"
   id="Capa_1"
   viewBox="0 0 456.79567 456.80861"
   xml:space="preserve"
   xmlns="http://www.w3.org/2000/svg"
   xmlns:svg="http://www.w3.org/2000/svg"><defs
   id="defs1" />
<path
   d="M 258.49256,198.90798 260.30627,12.44643 C 260.3699,5.8256248 255.06442,0.41624818 248.4447,0.35261578 L 212.80151,5.2408484e-4 C 209.62865,-0.02914692 206.56998,1.2019563 204.3004,3.4279566 c -2.27014,2.2265396 -3.5603,5.2607681 -3.59216,8.4335994 L 198.90155,198.33025 12.432877,196.52139 c -3.1728522,-0.0298 -6.2315236,1.20144 -8.5016579,3.42797 -2.2695841,2.226 -3.5603067,5.26077 -3.591606,8.43307 L 5.9589506e-4,244.02574 C -0.0646791,250.64599 5.2408222,256.05535 11.862167,256.11955 l 186.462203,1.80227 -1.81514,186.44137 c -0.0626,6.61972 5.24296,12.02911 11.86157,12.09382 l 35.64429,0.35101 c 3.17174,0.0306 6.23097,-1.2009 8.50111,-3.42744 2.27013,-2.22654 3.5603,-5.26077 3.5927,-8.43413 l 1.80593,-186.44637 186.44688,1.80865 c 3.17285,0.0297 6.23152,-1.20143 8.50166,-3.42797 2.27069,-2.22707 3.56086,-5.26131 3.59161,-8.43306 l 0.34011,-35.6444 c 0.0636,-6.61862 -5.24187,-12.02799 -11.86156,-12.0938 z"
   id="path1"
   style="fill:#999999;stroke-width:0.770481" />
</svg>
