<?xml version="1.0" standalone="no"?>
<!DOCTYPE svg PUBLIC "-//W3C//DTD SVG 20010904//EN"
 "http://www.w3.org/TR/2001/REC-SVG-20010904/DTD/svg10.dtd">
<svg version="1.0" xmlns="http://www.w3.org/2000/svg"
 width="55.000000pt" height="58.000000pt" viewBox="0 0 55.000000 58.000000"
 preserveAspectRatio="xMidYMid meet">
<metadata>
Created by potrace 1.16, written by Peter Selinger 2001-2019
</metadata>
<g transform="translate(0.000000,58.000000) scale(0.100000,-0.100000)"
fill="#000000" stroke="none">
<path d="M237 562 c-21 -23 -22 -56 -2 -72 10 -8 15 -30 15 -61 0 -39 -4 -49
-20 -54 -35 -11 -60 -54 -60 -102 0 -36 6 -50 29 -74 24 -24 38 -29 76 -29 38
0 52 5 76 29 23 24 29 38 29 74 0 48 -25 91 -60 102 -16 5 -20 15 -20 54 0 31
5 53 15 61 33 28 4 90 -42 90 -11 0 -27 -8 -36 -18z"/>
<path d="M115 497 c-135 -92 -152 -286 -37 -409 110 -117 289 -116 396 3 84
93 99 215 38 321 -26 47 -106 118 -133 118 -23 0 -4 -38 34 -65 78 -57 114
-169 83 -263 -30 -88 -130 -162 -221 -162 -91 0 -191 74 -221 162 -31 94 5
206 83 263 23 17 42 38 42 48 1 24 -10 22 -64 -16z"/>
</g>
</svg>
