<svg xmlns="http://www.w3.org/2000/svg" width="55" height="58" fill="none" viewBox="0 0 55 58">
  <path fill="#000" d="M25.625 57.93C12.405 56.987 1.961 47.087.148 33.775l-.146-1.069-.001-2.332L0 28.044l.119-.907c1.16-8.892 6.071-16.333 13.68-20.73C14.996 5.715 17.6 4.5 17.886 4.5h.063l-.045.178c-.154.607.008 2.285.329 3.415l.165.581-.06.02C10.745 11.23 4.375 20.587 4.064 29.663l-.04 1.166.075 1.036c.829 11.45 9.381 20.45 20.752 21.838l.937.114h3.426l.937-.114c11.377-1.389 19.881-10.338 20.753-21.838l.073-.971-.04-1.199c-.295-9.088-6.669-18.461-14.282-21.005l-.067-.022.14-.45c.323-1.031.482-2.309.398-3.201-.055-.588-.08-.56.34-.402 3.439 1.294 6.71 3.44 9.492 6.228l1.263 1.267.645.81c3.368 4.227 5.312 8.82 6.017 14.217l.118.907L55 30.375l-.001 2.332-.146 1.069c-2.003 14.707-14.688 25.19-29.227 24.153Zm.55-16.617c-4.866-.723-8.465-4.064-9.478-8.8l-.152-.713.002-1.49.003-1.49.143-.657c.854-3.93 3.471-6.918 7.22-8.244l.84-.297.018-4.67.017-4.67-.34-.226c-1.08-.722-1.93-1.92-2.287-3.225l-.115-.421V4.53l.114-.42c.29-1.07 1.009-2.199 1.841-2.891l.431-.359.646-.315a7.787 7.787 0 0 1 1.067-.43l.42-.114h.937L28.439 0l.513.147a5.496 5.496 0 0 1 3.47 2.903l.322.657.125.606.125.607v1.1l-.123.597-.122.595-.287.603c-.46.964-1.07 1.681-1.907 2.24l-.34.227.018 4.67.018 4.668.711.244c3.811 1.306 6.497 4.345 7.345 8.31l.152.712V31.8l-.152.711c-.948 4.424-4.24 7.73-8.618 8.655l-.666.141-1.325.018c-.729.01-1.412.004-1.519-.012h-.004Z"/>
</svg>
