<?xml version="1.0" encoding="UTF-8" standalone="no"?>
<svg
   fill="#000000"
   height="799.94788"
   width="799.99957"
   version="1.1"
   id="Capa_1"
   viewBox="0 0 460.77475 460.74498"
   xml:space="preserve"
   xmlns="http://www.w3.org/2000/svg"
   xmlns:svg="http://www.w3.org/2000/svg"><defs
   id="defs1" />
<path
   d="m 285.07975,230.382 171.138,-171.127 c 6.076,-6.077 6.076,-15.911 0,-21.986 L 423.51075,4.55 c -2.913,-2.911 -6.866,-4.55 -10.992,-4.55 -4.127,0 -8.08,1.639 -10.993,4.55 L 230.38775,175.69 59.24975,4.55 C 56.33675,1.639 52.38375,0 48.25675,0 c -4.126,0 -8.08,1.639 -10.992,4.55 l -32.707,32.719 c -6.077,6.075 -6.077,15.909 0,21.986 l 171.138,171.128 -171.121,171.107 c -6.074,6.077 -6.074,15.911 0,21.986 l 32.709,32.719 c 2.911,2.911 6.865,4.55 10.992,4.55 4.127,0 8.08,-1.639 10.994,-4.55 l 171.117,-171.12 171.118,171.12 c 2.913,2.911 6.866,4.55 10.993,4.55 4.128,0 8.081,-1.639 10.992,-4.55 l 32.709,-32.719 c 6.074,-6.075 6.074,-15.909 0,-21.986 z"
   id="path1"
   style="fill:#999999" />
</svg>
